<svg xmlns="http://www.w3.org/2000/svg" xmlns:xlink="http://www.w3.org/1999/xlink" version="1.1" width="940" height="788" viewBox="0 0 940 788" xml:space="preserve">
<desc>Created with Fabric.js 3.5.0</desc>
<defs>
</defs>
<rect x="0" y="0" width="100%" height="100%" fill="#beffa6"/>
<g transform="matrix(0.3563 0 0 0.3563 838.5197 378.5652)" id="701011">
<g style="" vector-effect="non-scaling-stroke">
		<g transform="matrix(1 0 0 1 0 -35.2)" id="Layer_1">
<circle style="stroke: none; stroke-width: 1; stroke-dasharray: none; stroke-linecap: butt; stroke-dashoffset: 0; stroke-linejoin: miter; stroke-miterlimit: 4; is-custom-font: none; font-file-url: none; fill: rgb(242,173,81); fill-rule: nonzero; opacity: 1;" cx="0" cy="0" r="213.6"/>
</g>
		<g transform="matrix(1 0 0 1 -31.2 -4)" id="Layer_1">
<path style="stroke: none; stroke-width: 1; stroke-dasharray: none; stroke-linecap: butt; stroke-dashoffset: 0; stroke-linejoin: miter; stroke-miterlimit: 4; is-custom-font: none; font-file-url: none; fill: rgb(255,193,102); fill-rule: nonzero; opacity: 1;" transform=" translate(-217.6, -244.8)" d="M 400 364.8 c -83.2 83.2 -219.2 83.2 -302.4 0 s -83.2 -219.2 0 -302.4" stroke-linecap="round"/>
</g>
		<g transform="matrix(1 0 0 1 0 219.5965)" id="Layer_1">
<path style="stroke: none; stroke-width: 1; stroke-dasharray: none; stroke-linecap: butt; stroke-dashoffset: 0; stroke-linejoin: miter; stroke-miterlimit: 4; is-custom-font: none; font-file-url: none; fill: rgb(108,173,39); fill-rule: nonzero; opacity: 1;" transform=" translate(-248.8, -468.3965)" d="M 496.8 497.6 c -36.8 -78.4 -142.4 -55.2 -248 -55.2 s -211.2 -23.2 -248 55.2 H 496.8 z" stroke-linecap="round"/>
</g>
		<g transform="matrix(1 0 0 1 0 181.6)" id="Layer_1">
<path style="stroke: none; stroke-width: 1; stroke-dasharray: none; stroke-linecap: butt; stroke-dashoffset: 0; stroke-linejoin: miter; stroke-miterlimit: 4; is-custom-font: none; font-file-url: none; fill: rgb(160,226,82); fill-rule: nonzero; opacity: 1;" transform=" translate(-248.8, -430.4)" d="M 446.4 497.6 c -31.2 -78.4 -108 -134.4 -197.6 -134.4 s -166.4 56 -197.6 134.4 H 446.4 z" stroke-linecap="round"/>
</g>
		<g transform="matrix(1 0 0 1 0 193.6)" id="Layer_1">
<path style="stroke: none; stroke-width: 1; stroke-dasharray: none; stroke-linecap: butt; stroke-dashoffset: 0; stroke-linejoin: miter; stroke-miterlimit: 4; is-custom-font: none; font-file-url: none; fill: rgb(125,196,49); fill-rule: nonzero; opacity: 1;" transform=" translate(-248.8, -442.4)" d="M 446.4 497.6 c -31.2 -78.4 -108 -110.4 -197.6 -110.4 s -166.4 32 -197.6 110.4 H 446.4 z" stroke-linecap="round"/>
</g>
		<g transform="matrix(1 0 0 1 0 210)" id="Layer_1">
<polygon style="stroke: none; stroke-width: 1; stroke-dasharray: none; stroke-linecap: butt; stroke-dashoffset: 0; stroke-linejoin: miter; stroke-miterlimit: 4; is-custom-font: none; font-file-url: none; fill: rgb(111,175,37); fill-rule: nonzero; opacity: 1;" points="64.8,38.8 -64.8,38.8 -33.6,-38.8 33.6,-38.8 "/>
</g>
		<g transform="matrix(1 0 0 1 -130.8 82.4)" id="Layer_1">
<polygon style="stroke: none; stroke-width: 1; stroke-dasharray: none; stroke-linecap: butt; stroke-dashoffset: 0; stroke-linejoin: miter; stroke-miterlimit: 4; is-custom-font: none; font-file-url: none; fill: rgb(214,84,131); fill-rule: nonzero; opacity: 1;" points="33.2,-17.6 9.2,-42.4 -33.2,0 9.2,42.4 33.2,18.4 "/>
</g>
		<g transform="matrix(-0.7069 0.7073 -0.7073 -0.7069 -153.1351 82.6047)" id="Layer_1">
<rect style="stroke: none; stroke-width: 1; stroke-dasharray: none; stroke-linecap: butt; stroke-dashoffset: 0; stroke-linejoin: miter; stroke-miterlimit: 4; is-custom-font: none; font-file-url: none; fill: rgb(214,84,131); fill-rule: nonzero; opacity: 1;" x="-29.9995" y="-29.9995" rx="0" ry="0" width="59.999" height="59.999"/>
</g>
		<g transform="matrix(1 0 0 1 -176 82.4)" id="Layer_1">
<polygon style="stroke: none; stroke-width: 1; stroke-dasharray: none; stroke-linecap: butt; stroke-dashoffset: 0; stroke-linejoin: miter; stroke-miterlimit: 4; is-custom-font: none; font-file-url: none; fill: rgb(214,84,131); fill-rule: nonzero; opacity: 1;" points="-8.8,-42.4 -33.6,-17.6 -33.6,17.6 -8.8,42.4 33.6,0 "/>
</g>
		<g transform="matrix(1 0 0 1 -153.2 175.6)" id="Layer_1">
<rect style="stroke: none; stroke-width: 1; stroke-dasharray: none; stroke-linecap: butt; stroke-dashoffset: 0; stroke-linejoin: miter; stroke-miterlimit: 4; is-custom-font: none; font-file-url: none; fill: rgb(2,137,82); fill-rule: nonzero; opacity: 1;" x="-6.8" y="-50.8" rx="0" ry="0" width="13.6" height="101.6"/>
</g>
		<g transform="matrix(1 0 0 1 -153.6 175.6)" id="Layer_1">
<polyline style="stroke: none; stroke-width: 1; stroke-dasharray: none; stroke-linecap: butt; stroke-dashoffset: 0; stroke-linejoin: miter; stroke-miterlimit: 4; is-custom-font: none; font-file-url: none; fill: rgb(3,109,63); fill-rule: nonzero; opacity: 1;" points="-6.4,-50.8 6.4,-50.8 6.4,50.8 "/>
</g>
		<g transform="matrix(1 0 0 1 -153.6 105.2)" id="SVGCleanerId_0">
<path style="stroke: none; stroke-width: 1; stroke-dasharray: none; stroke-linecap: butt; stroke-dashoffset: 0; stroke-linejoin: miter; stroke-miterlimit: 4; is-custom-font: none; font-file-url: none; fill: rgb(234,125,159); fill-rule: nonzero; opacity: 1;" transform=" translate(-95.2, -354)" d="M 140.8 322.4 l -15.2 -15.2 l -15.2 15.2 l -15.2 -15.2 L 80 322.4 l -15.2 -15.2 l -15.2 15.2 L 39.2 312 v 35.2 c 0 29.6 24 53.6 53.6 53.6 h 4.8 c 29.6 0 53.6 -24 53.6 -53.6 V 312 L 140.8 322.4 z" stroke-linecap="round"/>
</g>
		<g transform="matrix(1 0 0 1 -153.6 105.2)" id="SVGCleanerId_0_1_">
<path style="stroke: none; stroke-width: 1; stroke-dasharray: none; stroke-linecap: butt; stroke-dashoffset: 0; stroke-linejoin: miter; stroke-miterlimit: 4; is-custom-font: none; font-file-url: none; fill: rgb(234,125,159); fill-rule: nonzero; opacity: 1;" transform=" translate(-95.2, -354)" d="M 140.8 322.4 l -15.2 -15.2 l -15.2 15.2 l -15.2 -15.2 L 80 322.4 l -15.2 -15.2 l -15.2 15.2 L 39.2 312 v 35.2 c 0 29.6 24 53.6 53.6 53.6 h 4.8 c 29.6 0 53.6 -24 53.6 -53.6 V 312 L 140.8 322.4 z" stroke-linecap="round"/>
</g>
		<g transform="matrix(0.7066 -0.7076 0.7076 0.7066 -126.8655 65.7788)" id="Layer_1">
<rect style="stroke: none; stroke-width: 1; stroke-dasharray: none; stroke-linecap: butt; stroke-dashoffset: 0; stroke-linejoin: miter; stroke-miterlimit: 4; is-custom-font: none; font-file-url: none; fill: rgb(244,174,199); fill-rule: nonzero; opacity: 1;" x="-8" y="-2.8" rx="0" ry="0" width="16" height="5.6"/>
</g>
		<g transform="matrix(0.7066 -0.7076 0.7076 0.7066 -157.5683 65.9154)" id="Layer_1">
<rect style="stroke: none; stroke-width: 1; stroke-dasharray: none; stroke-linecap: butt; stroke-dashoffset: 0; stroke-linejoin: miter; stroke-miterlimit: 4; is-custom-font: none; font-file-url: none; fill: rgb(244,174,199); fill-rule: nonzero; opacity: 1;" x="-8" y="-2.8" rx="0" ry="0" width="16" height="5.6"/>
</g>
		<g transform="matrix(1 0 0 1 -100.8 68.4)" id="Layer_1">
<polygon style="stroke: none; stroke-width: 1; stroke-dasharray: none; stroke-linecap: butt; stroke-dashoffset: 0; stroke-linejoin: miter; stroke-miterlimit: 4; is-custom-font: none; font-file-url: none; fill: rgb(244,174,199); fill-rule: nonzero; opacity: 1;" points="0.8,5.2 3.2,2.8 3.2,-5.2 -3.2,1.2 "/>
</g>
		<g transform="matrix(1 0 0 1 -179.6 107.6)" id="Layer_1">
<path style="stroke: none; stroke-width: 1; stroke-dasharray: none; stroke-linecap: butt; stroke-dashoffset: 0; stroke-linejoin: miter; stroke-miterlimit: 4; is-custom-font: none; font-file-url: none; fill: rgb(244,174,199); fill-rule: nonzero; opacity: 1;" transform=" translate(-69.2, -356.4)" d="M 47.2 347.2 V 320 l -8 -8 v 35.2 c 0 29.6 24 53.6 53.6 53.6 h 4.8 c 0.8 0 0.8 0 1.6 0 C 70.4 400 47.2 376 47.2 347.2 z" stroke-linecap="round"/>
</g>
		<g transform="matrix(0.7071 -0.7071 0.7071 0.7071 -187.6911 65.5151)" id="Layer_1">
<rect style="stroke: none; stroke-width: 1; stroke-dasharray: none; stroke-linecap: butt; stroke-dashoffset: 0; stroke-linejoin: miter; stroke-miterlimit: 4; is-custom-font: none; font-file-url: none; fill: rgb(244,174,199); fill-rule: nonzero; opacity: 1;" x="-8" y="-2.8" rx="0" ry="0" width="16" height="5.6"/>
</g>
		<g transform="matrix(1 0 0 1 176 82.4)" id="Layer_1">
<polygon style="stroke: none; stroke-width: 1; stroke-dasharray: none; stroke-linecap: butt; stroke-dashoffset: 0; stroke-linejoin: miter; stroke-miterlimit: 4; is-custom-font: none; font-file-url: none; fill: rgb(214,84,131); fill-rule: nonzero; opacity: 1;" points="33.6,-17.6 8.8,-42.4 -33.6,0 8.8,42.4 33.6,18.4 "/>
</g>
		<g transform="matrix(-0.707 0.7072 -0.7072 -0.707 154.0179 82.4994)" id="Layer_1">
<rect style="stroke: none; stroke-width: 1; stroke-dasharray: none; stroke-linecap: butt; stroke-dashoffset: 0; stroke-linejoin: miter; stroke-miterlimit: 4; is-custom-font: none; font-file-url: none; fill: rgb(214,84,131); fill-rule: nonzero; opacity: 1;" x="-29.9995" y="-29.9995" rx="0" ry="0" width="59.999" height="59.999"/>
</g>
		<g transform="matrix(1 0 0 1 131.2 82.4)" id="Layer_1">
<polygon style="stroke: none; stroke-width: 1; stroke-dasharray: none; stroke-linecap: butt; stroke-dashoffset: 0; stroke-linejoin: miter; stroke-miterlimit: 4; is-custom-font: none; font-file-url: none; fill: rgb(214,84,131); fill-rule: nonzero; opacity: 1;" points="-8.8,-42.4 -33.6,-17.6 -33.6,17.6 -8.8,42.4 33.6,0 "/>
</g>
		<g transform="matrix(1 0 0 1 154 175.6)" id="Layer_1">
<rect style="stroke: none; stroke-width: 1; stroke-dasharray: none; stroke-linecap: butt; stroke-dashoffset: 0; stroke-linejoin: miter; stroke-miterlimit: 4; is-custom-font: none; font-file-url: none; fill: rgb(2,137,82); fill-rule: nonzero; opacity: 1;" x="-6.8" y="-50.8" rx="0" ry="0" width="13.6" height="101.6"/>
</g>
		<g transform="matrix(1 0 0 1 153.6 175.6)" id="Layer_1">
<polyline style="stroke: none; stroke-width: 1; stroke-dasharray: none; stroke-linecap: butt; stroke-dashoffset: 0; stroke-linejoin: miter; stroke-miterlimit: 4; is-custom-font: none; font-file-url: none; fill: rgb(3,109,63); fill-rule: nonzero; opacity: 1;" points="-6.4,-50.8 6.4,-50.8 6.4,50.8 "/>
</g>
		<g transform="matrix(1 0 0 1 153.6 105.2)" id="SVGCleanerId_1">
<path style="stroke: none; stroke-width: 1; stroke-dasharray: none; stroke-linecap: butt; stroke-dashoffset: 0; stroke-linejoin: miter; stroke-miterlimit: 4; is-custom-font: none; font-file-url: none; fill: rgb(234,125,159); fill-rule: nonzero; opacity: 1;" transform=" translate(-402.4, -354)" d="M 448 322.4 l -15.2 -15.2 l -15.2 15.2 l -15.2 -15.2 l -15.2 15.2 L 372 307.2 l -15.2 15.2 L 346.4 312 v 35.2 c 0 29.6 24 53.6 53.6 53.6 h 4.8 c 29.6 0 53.6 -24 53.6 -53.6 V 312 L 448 322.4 z" stroke-linecap="round"/>
</g>
		<g transform="matrix(1 0 0 1 153.6 105.2)" id="SVGCleanerId_1_1_">
<path style="stroke: none; stroke-width: 1; stroke-dasharray: none; stroke-linecap: butt; stroke-dashoffset: 0; stroke-linejoin: miter; stroke-miterlimit: 4; is-custom-font: none; font-file-url: none; fill: rgb(234,125,159); fill-rule: nonzero; opacity: 1;" transform=" translate(-402.4, -354)" d="M 448 322.4 l -15.2 -15.2 l -15.2 15.2 l -15.2 -15.2 l -15.2 15.2 L 372 307.2 l -15.2 15.2 L 346.4 312 v 35.2 c 0 29.6 24 53.6 53.6 53.6 h 4.8 c 29.6 0 53.6 -24 53.6 -53.6 V 312 L 448 322.4 z" stroke-linecap="round"/>
</g>
		<g transform="matrix(0.7071 -0.7071 0.7071 0.7071 180.1679 65.8953)" id="Layer_1">
<rect style="stroke: none; stroke-width: 1; stroke-dasharray: none; stroke-linecap: butt; stroke-dashoffset: 0; stroke-linejoin: miter; stroke-miterlimit: 4; is-custom-font: none; font-file-url: none; fill: rgb(244,174,199); fill-rule: nonzero; opacity: 1;" x="-8" y="-2.8" rx="0" ry="0" width="16" height="5.6"/>
</g>
		<g transform="matrix(0.7066 -0.7076 0.7076 0.7066 150.0311 65.4295)" id="Layer_1">
<rect style="stroke: none; stroke-width: 1; stroke-dasharray: none; stroke-linecap: butt; stroke-dashoffset: 0; stroke-linejoin: miter; stroke-miterlimit: 4; is-custom-font: none; font-file-url: none; fill: rgb(244,174,199); fill-rule: nonzero; opacity: 1;" x="-8" y="-2.8" rx="0" ry="0" width="16" height="5.6"/>
</g>
		<g transform="matrix(1 0 0 1 206.4 68.4)" id="Layer_1">
<polygon style="stroke: none; stroke-width: 1; stroke-dasharray: none; stroke-linecap: butt; stroke-dashoffset: 0; stroke-linejoin: miter; stroke-miterlimit: 4; is-custom-font: none; font-file-url: none; fill: rgb(244,174,199); fill-rule: nonzero; opacity: 1;" points="0.8,5.2 3.2,2.8 3.2,-5.2 -3.2,1.2 "/>
</g>
		<g transform="matrix(1 0 0 1 127.6 107.6)" id="Layer_1">
<path style="stroke: none; stroke-width: 1; stroke-dasharray: none; stroke-linecap: butt; stroke-dashoffset: 0; stroke-linejoin: miter; stroke-miterlimit: 4; is-custom-font: none; font-file-url: none; fill: rgb(244,174,199); fill-rule: nonzero; opacity: 1;" transform=" translate(-376.4, -356.4)" d="M 354.4 347.2 V 320 l -8 -8 v 35.2 c 0 29.6 24 53.6 53.6 53.6 h 4.8 c 0.8 0 0.8 0 1.6 0 C 377.6 400 354.4 376 354.4 347.2 z" stroke-linecap="round"/>
</g>
		<g transform="matrix(0.7069 -0.7074 0.7074 0.7069 119.2584 65.5603)" id="Layer_1">
<rect style="stroke: none; stroke-width: 1; stroke-dasharray: none; stroke-linecap: butt; stroke-dashoffset: 0; stroke-linejoin: miter; stroke-miterlimit: 4; is-custom-font: none; font-file-url: none; fill: rgb(244,174,199); fill-rule: nonzero; opacity: 1;" x="-8.0005" y="-2.8" rx="0" ry="0" width="16.001" height="5.6"/>
</g>
		<g transform="matrix(1 0 0 1 -1.6 56.8)" id="Layer_1">
<path style="stroke: none; stroke-width: 1; stroke-dasharray: none; stroke-linecap: butt; stroke-dashoffset: 0; stroke-linejoin: miter; stroke-miterlimit: 4; is-custom-font: none; font-file-url: none; fill: rgb(3,109,63); fill-rule: nonzero; opacity: 1;" transform=" translate(-247.2, -305.6)" d="M 254.4 462.4 c 0 4 -3.2 7.2 -7.2 7.2 l 0 0 c -4 0 -7.2 -3.2 -7.2 -7.2 V 148.8 c 0 -4 3.2 -7.2 7.2 -7.2 l 0 0 c 4 0 7.2 3.2 7.2 7.2 V 462.4 z" stroke-linecap="round"/>
</g>
		<g transform="matrix(1 0 0 1 -1.6 -189.6)" id="Layer_1">
<path style="stroke: none; stroke-width: 1; stroke-dasharray: none; stroke-linecap: butt; stroke-dashoffset: 0; stroke-linejoin: miter; stroke-miterlimit: 4; is-custom-font: none; font-file-url: none; fill: rgb(242,131,177); fill-rule: nonzero; opacity: 1;" transform=" translate(-247.2, -59.2)" d="M 276 41.6 c 0 36.8 -12.8 76.8 -28.8 76.8 s -28.8 -40 -28.8 -76.8 S 231.2 0 247.2 0 C 263.2 0.8 276 4.8 276 41.6 z" stroke-linecap="round"/>
</g>
		<g transform="matrix(1 0 0 1 12.8 -188.8)" id="Layer_1">
<path style="stroke: none; stroke-width: 1; stroke-dasharray: none; stroke-linecap: butt; stroke-dashoffset: 0; stroke-linejoin: miter; stroke-miterlimit: 4; is-custom-font: none; font-file-url: none; fill: rgb(239,101,151); fill-rule: nonzero; opacity: 1;" transform=" translate(-261.6, -60)" d="M 247.2 0.8 c 16 0 28.8 4.8 28.8 41.6 s -12.8 76.8 -28.8 76.8" stroke-linecap="round"/>
</g>
		<g transform="matrix(1 0 0 1 -1.6 2.4)" id="Layer_1">
<path style="stroke: none; stroke-width: 1; stroke-dasharray: none; stroke-linecap: butt; stroke-dashoffset: 0; stroke-linejoin: miter; stroke-miterlimit: 4; is-custom-font: none; font-file-url: none; fill: rgb(242,131,177); fill-rule: nonzero; opacity: 1;" transform=" translate(-247.2, -251.2)" d="M 218.4 268.8 c 0 -36.8 12.8 -76.8 28.8 -76.8 s 28.8 40 28.8 76.8 s -12.8 41.6 -28.8 41.6 C 231.2 310.4 218.4 305.6 218.4 268.8 z" stroke-linecap="round"/>
</g>
		<g transform="matrix(1 0 0 1 -16 2.4)" id="Layer_1">
<path style="stroke: none; stroke-width: 1; stroke-dasharray: none; stroke-linecap: butt; stroke-dashoffset: 0; stroke-linejoin: miter; stroke-miterlimit: 4; is-custom-font: none; font-file-url: none; fill: rgb(239,101,151); fill-rule: nonzero; opacity: 1;" transform=" translate(-232.8, -251.2)" d="M 247.2 310.4 c -16 0 -28.8 -4.8 -28.8 -41.6 c 0 -36.8 12.8 -76.8 28.8 -76.8" stroke-linecap="round"/>
</g>
		<g transform="matrix(1 0 0 1 94.4 -93.6)" id="Layer_1">
<path style="stroke: none; stroke-width: 1; stroke-dasharray: none; stroke-linecap: butt; stroke-dashoffset: 0; stroke-linejoin: miter; stroke-miterlimit: 4; is-custom-font: none; font-file-url: none; fill: rgb(242,131,177); fill-rule: nonzero; opacity: 1;" transform=" translate(-343.2, -155.2)" d="M 360.8 184 c -36.8 0 -76.8 -12.8 -76.8 -28.8 s 40 -28.8 76.8 -28.8 s 41.6 12.8 41.6 28.8 S 397.6 184 360.8 184 z" stroke-linecap="round"/>
</g>
		<g transform="matrix(1 0 0 1 94.4 -79.2)" id="Layer_1">
<path style="stroke: none; stroke-width: 1; stroke-dasharray: none; stroke-linecap: butt; stroke-dashoffset: 0; stroke-linejoin: miter; stroke-miterlimit: 4; is-custom-font: none; font-file-url: none; fill: rgb(239,101,151); fill-rule: nonzero; opacity: 1;" transform=" translate(-343.2, -169.6)" d="M 402.4 155.2 c 0 16 -4.8 28.8 -41.6 28.8 S 284 171.2 284 155.2" stroke-linecap="round"/>
</g>
		<g transform="matrix(1 0 0 1 -97.6 -92.8)" id="Layer_1">
<path style="stroke: none; stroke-width: 1; stroke-dasharray: none; stroke-linecap: butt; stroke-dashoffset: 0; stroke-linejoin: miter; stroke-miterlimit: 4; is-custom-font: none; font-file-url: none; fill: rgb(242,131,177); fill-rule: nonzero; opacity: 1;" transform=" translate(-151.2, -156)" d="M 133.6 127.2 c 36.8 0 76.8 12.8 76.8 28.8 s -40 28.8 -76.8 28.8 S 92 172 92 156 C 92 140 96.8 127.2 133.6 127.2 z" stroke-linecap="round"/>
</g>
		<g transform="matrix(1 0 0 1 -97.6 -108)" id="Layer_1">
<path style="stroke: none; stroke-width: 1; stroke-dasharray: none; stroke-linecap: butt; stroke-dashoffset: 0; stroke-linejoin: miter; stroke-miterlimit: 4; is-custom-font: none; font-file-url: none; fill: rgb(239,101,151); fill-rule: nonzero; opacity: 1;" transform=" translate(-151.2, -140.8)" d="M 92 155.2 c 0 -16 4.8 -28.8 41.6 -28.8 c 36.8 0 76.8 12.8 76.8 28.8" stroke-linecap="round"/>
</g>
		<g transform="matrix(1 0 0 1 69.5423 -163.9219)" id="Layer_1">
<path style="stroke: none; stroke-width: 1; stroke-dasharray: none; stroke-linecap: butt; stroke-dashoffset: 0; stroke-linejoin: miter; stroke-miterlimit: 4; is-custom-font: none; font-file-url: none; fill: rgb(242,131,177); fill-rule: nonzero; opacity: 1;" transform=" translate(-318.3423, -84.8782)" d="M 348 95.2 c -26.4 25.6 -63.2 45.6 -74.4 34.4 c -11.2 -11.2 8 -48.8 34.4 -74.4 c 25.6 -25.6 38.4 -20 49.6 -8.8 C 368 56.8 373.6 68.8 348 95.2 z" stroke-linecap="round"/>
</g>
		<g transform="matrix(1 0 0 1 71.1132 -159.6087)" id="Layer_1">
<path style="stroke: none; stroke-width: 1; stroke-dasharray: none; stroke-linecap: butt; stroke-dashoffset: 0; stroke-linejoin: miter; stroke-miterlimit: 4; is-custom-font: none; font-file-url: none; fill: rgb(239,101,151); fill-rule: nonzero; opacity: 1;" transform=" translate(-319.9132, -89.1913)" d="M 356.8 45.6 c 11.2 11.2 16.8 23.2 -8.8 49.6 c -26.4 25.6 -63.2 45.6 -74.4 34.4" stroke-linecap="round"/>
</g>
		<g transform="matrix(1 0 0 1 -72.7424 -22.4782)" id="Layer_1">
<path style="stroke: none; stroke-width: 1; stroke-dasharray: none; stroke-linecap: butt; stroke-dashoffset: 0; stroke-linejoin: miter; stroke-miterlimit: 4; is-custom-font: none; font-file-url: none; fill: rgb(242,131,177); fill-rule: nonzero; opacity: 1;" transform=" translate(-176.0577, -226.3218)" d="M 146.4 216 c 26.4 -25.6 63.2 -45.6 74.4 -34.4 c 11.2 11.2 -8 48.8 -34.4 74.4 s -38.4 20 -49.6 8.8 C 126.4 253.6 120.8 241.6 146.4 216 z" stroke-linecap="round"/>
</g>
		<g transform="matrix(1 0 0 1 -74.3132 -27.5914)" id="Layer_1">
<path style="stroke: none; stroke-width: 1; stroke-dasharray: none; stroke-linecap: butt; stroke-dashoffset: 0; stroke-linejoin: miter; stroke-miterlimit: 4; is-custom-font: none; font-file-url: none; fill: rgb(239,101,151); fill-rule: nonzero; opacity: 1;" transform=" translate(-174.4868, -221.2087)" d="M 137.6 264.8 c -11.2 -11.2 -16.8 -23.2 8.8 -49.6 c 26.4 -25.6 63.2 -45.6 74.4 -34.4" stroke-linecap="round"/>
</g>
		<g transform="matrix(1 0 0 1 68.7218 -22.3156)" id="Layer_1">
<path style="stroke: none; stroke-width: 1; stroke-dasharray: none; stroke-linecap: butt; stroke-dashoffset: 0; stroke-linejoin: miter; stroke-miterlimit: 4; is-custom-font: none; font-file-url: none; fill: rgb(242,131,177); fill-rule: nonzero; opacity: 1;" transform=" translate(-317.5218, -226.4844)" d="M 307.2 256 c -25.6 -26.4 -45.6 -63.2 -34.4 -74.4 s 48.8 8 74.4 34.4 s 20 38.4 8.8 49.6 C 345.6 276 333.6 282.4 307.2 256 z" stroke-linecap="round"/>
</g>
		<g transform="matrix(1 0 0 1 64.4086 -20.8868)" id="Layer_1">
<path style="stroke: none; stroke-width: 1; stroke-dasharray: none; stroke-linecap: butt; stroke-dashoffset: 0; stroke-linejoin: miter; stroke-miterlimit: 4; is-custom-font: none; font-file-url: none; fill: rgb(239,101,151); fill-rule: nonzero; opacity: 1;" transform=" translate(-313.2087, -227.9132)" d="M 356.8 264.8 c -11.2 11.2 -23.2 16.8 -49.6 -8.8 c -25.6 -26.4 -45.6 -63.2 -34.4 -74.4" stroke-linecap="round"/>
</g>
		<g transform="matrix(1 0 0 1 -72.2789 -164.2414)" id="Layer_1">
<path style="stroke: none; stroke-width: 1; stroke-dasharray: none; stroke-linecap: butt; stroke-dashoffset: 0; stroke-linejoin: miter; stroke-miterlimit: 4; is-custom-font: none; font-file-url: none; fill: rgb(242,131,177); fill-rule: nonzero; opacity: 1;" transform=" translate(-176.5211, -84.5586)" d="M 187.2 55.2 c 25.6 25.6 45.6 63.2 34.4 74.4 c -11.2 11.2 -48.8 -8 -74.4 -34.4 c -26.4 -26.4 -20.8 -38.4 -9.6 -49.6 C 148.8 34.4 160.8 28.8 187.2 55.2 z" stroke-linecap="round"/>
</g>
		<g transform="matrix(1 0 0 1 -67.6087 -166.3132)" id="Layer_1">
<path style="stroke: none; stroke-width: 1; stroke-dasharray: none; stroke-linecap: butt; stroke-dashoffset: 0; stroke-linejoin: miter; stroke-miterlimit: 4; is-custom-font: none; font-file-url: none; fill: rgb(239,101,151); fill-rule: nonzero; opacity: 1;" transform=" translate(-181.1913, -82.4868)" d="M 137.6 45.6 c 11.2 -11.2 23.2 -16.8 49.6 8.8 c 25.6 25.6 45.6 63.2 34.4 74.4" stroke-linecap="round"/>
</g>
		<g transform="matrix(1 0 0 1 -1.6 -93.6)" id="Layer_1">
<circle style="stroke: none; stroke-width: 1; stroke-dasharray: none; stroke-linecap: butt; stroke-dashoffset: 0; stroke-linejoin: miter; stroke-miterlimit: 4; is-custom-font: none; font-file-url: none; fill: rgb(247,201,11); fill-rule: nonzero; opacity: 1;" cx="0" cy="0" r="48"/>
</g>
		<g transform="matrix(1 0 0 1 5.7 -86)" id="Layer_1">
<path style="stroke: none; stroke-width: 1; stroke-dasharray: none; stroke-linecap: butt; stroke-dashoffset: 0; stroke-linejoin: miter; stroke-miterlimit: 4; is-custom-font: none; font-file-url: none; fill: rgb(249,169,8); fill-rule: nonzero; opacity: 1;" transform=" translate(-254.5, -162.8)" d="M 281.6 121.6 c 18.4 19.2 18.4 49.6 0 68 c -19.2 19.2 -49.6 19.2 -68 0" stroke-linecap="round"/>
</g>
		<g transform="matrix(1 0 0 1 -41.0694 131.611)" id="Layer_1">
<path style="stroke: none; stroke-width: 1; stroke-dasharray: none; stroke-linecap: butt; stroke-dashoffset: 0; stroke-linejoin: miter; stroke-miterlimit: 4; is-custom-font: none; font-file-url: none; fill: rgb(3,109,63); fill-rule: nonzero; opacity: 1;" transform=" translate(-207.7306, -380.411)" d="M 252 401.6 c 0 0 -12.8 -52.8 -46.4 -64.8 S 176 297.6 176 297.6 s -38.4 80 19.2 136.8 c 45.6 44.8 52.8 24 52.8 24 L 252 401.6 z" stroke-linecap="round"/>
</g>
		<g transform="matrix(1 0 0 1 37.8694 131.611)" id="Layer_1">
<path style="stroke: none; stroke-width: 1; stroke-dasharray: none; stroke-linecap: butt; stroke-dashoffset: 0; stroke-linejoin: miter; stroke-miterlimit: 4; is-custom-font: none; font-file-url: none; fill: rgb(3,109,63); fill-rule: nonzero; opacity: 1;" transform=" translate(-286.6694, -380.411)" d="M 242.4 401.6 c 0 0 12.8 -52.8 46.4 -64.8 s 29.6 -39.2 29.6 -39.2 s 38.4 80 -19.2 136.8 c -45.6 44.8 -52.8 24 -52.8 24 L 242.4 401.6 z" stroke-linecap="round"/>
</g>
</g>
</g>
<g transform="matrix(0.3677 0 0 0.3677 490.9104 118.2807)" id="881128">
<g style="" vector-effect="non-scaling-stroke">
		<g transform="matrix(1 0 0 1 -126.0044 -0.0109)" id="Layer_1">
<path style="stroke: none; stroke-width: 1; stroke-dasharray: none; stroke-linecap: butt; stroke-dashoffset: 0; stroke-linejoin: miter; stroke-miterlimit: 4; is-custom-font: none; font-file-url: none; fill: rgb(146,199,211); fill-rule: nonzero; opacity: 1;" transform=" translate(-114.6675, -240.6611)" d="M 160.251 272.624 V 56 c 0 -26.512 -21.488 -48 -48 -48 l 0 0 c -26.512 0 -48 21.488 -48 48 v 218.96 C 28.187 294.6 4.835 334.648 9.731 379.592 c 5.272 48.432 44.488 87.72 92.912 93.064 c 63.696 7.04 117.608 -42.648 117.608 -104.92 C 220.251 325.784 195.707 289.648 160.251 272.624 z" stroke-linecap="round"/>
</g>
		<g transform="matrix(1 0 0 1 -126.0001 0)" id="Layer_1">
<path style="stroke: none; stroke-width: 1; stroke-dasharray: none; stroke-linecap: butt; stroke-dashoffset: 0; stroke-linejoin: miter; stroke-miterlimit: 4; is-custom-font: none; font-file-url: none; fill: rgb(77,77,77); fill-rule: nonzero; opacity: 1;" transform=" translate(-114.6719, -240.672)" d="M 114.859 481.344 c -4.336 0 -8.704 -0.24 -13.096 -0.728 c -52.24 -5.768 -94.296 -47.88 -99.984 -100.152 c -4.864 -44.616 16.424 -87.312 54.472 -110.144 V 56 c 0 -30.872 25.12 -56 56 -56 s 56 25.128 56 56 v 211.72 c 36.616 19.664 60 58.384 60 100.032 c 0 32.256 -13.792 63.104 -37.832 84.632 C 169.307 471.288 142.867 481.344 114.859 481.344 z M 112.251 16 c -22.056 0 -40 17.944 -40 40 v 223.712 l -4.176 2.272 c -34.936 19.032 -54.72 57.008 -50.392 96.752 c 4.888 44.864 40.984 81.032 85.84 85.976 c 28.208 3.144 55.288 -5.496 76.224 -24.24 c 20.656 -18.504 32.504 -45.008 32.504 -72.72 c 0 -37.224 -21.768 -71.736 -55.464 -87.912 l -4.536 -2.184 V 56 C 152.251 33.944 134.307 16 112.251 16 z" stroke-linecap="round"/>
</g>
		<g transform="matrix(1 0 0 1 -126.6755 75.0381)" id="Layer_1">
<path style="stroke: none; stroke-width: 1; stroke-dasharray: none; stroke-linecap: butt; stroke-dashoffset: 0; stroke-linejoin: miter; stroke-miterlimit: 4; is-custom-font: none; font-file-url: none; fill: rgb(228,241,244); fill-rule: nonzero; opacity: 1;" transform=" translate(-113.9966, -315.7101)" d="M 136.251 302.744 V 216 c 0 -13.256 -10.744 -24 -24 -24 l 0 0 c -13.256 0 -24 10.744 -24 24 v 88.024 c -25.24 9.976 -43.336 34.112 -44.376 62.64 c -1.392 38.312 29.776 71.656 68.104 72.728 c 39.672 1.112 72.184 -30.72 72.184 -70.144 C 184.163 338.288 164.083 312.056 136.251 302.744 z" stroke-linecap="round"/>
</g>
		<g transform="matrix(1 0 0 1 -128.421 -176.672)" id="Layer_1">
<path style="stroke: none; stroke-width: 1; stroke-dasharray: none; stroke-linecap: butt; stroke-dashoffset: 0; stroke-linejoin: miter; stroke-miterlimit: 4; is-custom-font: none; font-file-url: none; fill: rgb(228,241,244); fill-rule: nonzero; opacity: 1;" transform=" translate(-112.251, -64)" d="M 128.251 72 h -32 c -4.416 0 -8 -3.576 -8 -8 s 3.584 -8 8 -8 h 32 c 4.416 0 8 3.576 8 8 S 132.667 72 128.251 72 z" stroke-linecap="round"/>
</g>
		<g transform="matrix(1 0 0 1 -128.421 -128.672)" id="Layer_1">
<path style="stroke: none; stroke-width: 1; stroke-dasharray: none; stroke-linecap: butt; stroke-dashoffset: 0; stroke-linejoin: miter; stroke-miterlimit: 4; is-custom-font: none; font-file-url: none; fill: rgb(228,241,244); fill-rule: nonzero; opacity: 1;" transform=" translate(-112.251, -112)" d="M 128.251 120 h -32 c -4.416 0 -8 -3.576 -8 -8 s 3.584 -8 8 -8 h 32 c 4.416 0 8 3.576 8 8 C 136.251 116.424 132.667 120 128.251 120 z" stroke-linecap="round"/>
</g>
		<g transform="matrix(1 0 0 1 -128.421 -80.672)" id="Layer_1">
<path style="stroke: none; stroke-width: 1; stroke-dasharray: none; stroke-linecap: butt; stroke-dashoffset: 0; stroke-linejoin: miter; stroke-miterlimit: 4; is-custom-font: none; font-file-url: none; fill: rgb(228,241,244); fill-rule: nonzero; opacity: 1;" transform=" translate(-112.251, -160)" d="M 128.251 168 h -32 c -4.416 0 -8 -3.576 -8 -8 s 3.584 -8 8 -8 h 32 c 4.416 0 8 3.576 8 8 S 132.667 168 128.251 168 z" stroke-linecap="round"/>
</g>
		<g transform="matrix(1 0 0 1 47.579 -128.672)" id="Layer_1">
<path style="stroke: none; stroke-width: 1; stroke-dasharray: none; stroke-linecap: butt; stroke-dashoffset: 0; stroke-linejoin: miter; stroke-miterlimit: 4; is-custom-font: none; font-file-url: none; fill: rgb(77,77,77); fill-rule: nonzero; opacity: 1;" transform=" translate(-288.251, -112)" d="M 368.251 104 h -13.528 l 9.736 -10.584 c 2.992 -3.248 2.784 -8.312 -0.472 -11.304 c -3.248 -2.992 -8.32 -2.784 -11.304 0.48 L 332.987 104 h -25.424 l 42.248 -42.248 c 3.128 -3.128 3.128 -8.184 0 -11.312 s -8.184 -3.128 -11.312 0 l -42.248 42.248 V 67.32 l 21.936 -21.856 c 3.136 -3.12 3.144 -8.176 0.024 -11.312 s -8.184 -3.152 -11.312 -0.016 l -10.648 10.6 V 32 c 0 -4.424 -3.584 -8 -8 -8 s -8 3.576 -8 8 v 12.712 l -10.6 -10.584 c -3.136 -3.12 -8.2 -3.136 -11.32 0.016 c -3.12 3.128 -3.112 8.184 0.008 11.312 l 21.912 21.864 v 25.368 L 238.003 50.44 c -3.128 -3.128 -8.184 -3.128 -11.312 0 s -3.128 8.184 0 11.312 L 268.939 104 h -26.08 l -20.568 -21.52 c -3.056 -3.2 -8.12 -3.312 -11.312 -0.256 c -3.192 3.048 -3.312 8.12 -0.256 11.304 L 220.731 104 h -12.48 c -4.416 0 -8 3.576 -8 8 c 0 4.424 3.584 8 8 8 h 12.456 l -11.032 10.992 c -3.136 3.128 -3.144 8.184 -0.024 11.32 c 1.56 1.568 3.616 2.352 5.664 2.352 c 2.04 0 4.088 -0.776 5.648 -2.328 L 243.387 120 h 25.552 l -42.248 42.248 c -3.128 3.128 -3.128 8.184 0 11.312 c 1.56 1.56 3.608 2.344 5.656 2.344 s 4.096 -0.784 5.656 -2.344 l 42.248 -42.248 v 25.16 l -21.904 21.856 c -3.128 3.128 -3.136 8.184 -0.008 11.312 c 3.12 3.136 8.184 3.136 11.32 0.016 l 10.592 -10.576 V 192 c 0 4.424 3.584 8 8 8 s 8 -3.576 8 -8 v -12.944 l 10.648 10.608 c 1.56 1.56 3.6 2.336 5.648 2.336 s 4.104 -0.784 5.664 -2.352 c 3.12 -3.136 3.112 -8.192 -0.024 -11.312 l -21.936 -21.856 v -25.168 l 42.248 42.248 c 1.56 1.56 3.608 2.344 5.656 2.344 s 4.096 -0.784 5.656 -2.344 c 3.128 -3.128 3.128 -8.184 0 -11.312 L 307.563 120 h 25.488 l 20.88 22.152 c 1.576 1.672 3.696 2.512 5.824 2.512 c 1.968 0 3.944 -0.72 5.488 -2.176 c 3.216 -3.032 3.36 -8.096 0.336 -11.304 L 355.035 120 h 13.216 c 4.416 0 8 -3.576 8 -8 S 372.667 104 368.251 104 z" stroke-linecap="round"/>
</g>
		<g transform="matrix(1 0 0 1 47.979 -129.096)" id="Layer_1">
<circle style="stroke: none; stroke-width: 1; stroke-dasharray: none; stroke-linecap: butt; stroke-dashoffset: 0; stroke-linejoin: miter; stroke-miterlimit: 4; is-custom-font: none; font-file-url: none; fill: rgb(228,241,244); fill-rule: nonzero; opacity: 1;" cx="0" cy="0" r="29.824"/>
</g>
		<g transform="matrix(1 0 0 1 48.007 -129.096)" id="Layer_1">
<path style="stroke: none; stroke-width: 1; stroke-dasharray: none; stroke-linecap: butt; stroke-dashoffset: 0; stroke-linejoin: miter; stroke-miterlimit: 4; is-custom-font: none; font-file-url: none; fill: rgb(77,77,77); fill-rule: nonzero; opacity: 1;" transform=" translate(-288.679, -111.576)" d="M 288.675 149.408 c -20.856 0 -37.824 -16.968 -37.824 -37.832 s 16.968 -37.832 37.824 -37.832 c 20.856 0 37.832 16.968 37.832 37.832 S 309.531 149.408 288.675 149.408 z M 288.675 89.752 c -12.032 0 -21.824 9.792 -21.824 21.832 s 9.792 21.832 21.824 21.832 s 21.832 -9.792 21.832 -21.832 S 300.707 89.752 288.675 89.752 z" stroke-linecap="round"/>
</g>
		<g transform="matrix(1 0 0 1 151.579 95.328)" id="Layer_1">
<path style="stroke: none; stroke-width: 1; stroke-dasharray: none; stroke-linecap: butt; stroke-dashoffset: 0; stroke-linejoin: miter; stroke-miterlimit: 4; is-custom-font: none; font-file-url: none; fill: rgb(77,77,77); fill-rule: nonzero; opacity: 1;" transform=" translate(-392.251, -336)" d="M 472.251 328 h -13.528 l 9.736 -10.584 c 2.992 -3.248 2.784 -8.312 -0.472 -11.304 c -3.248 -2.992 -8.328 -2.784 -11.304 0.48 L 436.987 328 h -25.424 l 42.248 -42.248 c 3.128 -3.128 3.128 -8.184 0 -11.312 s -8.184 -3.128 -11.312 0 l -42.248 42.248 V 291.32 l 21.936 -21.856 c 3.136 -3.12 3.144 -8.176 0.024 -11.312 c -3.12 -3.136 -8.192 -3.152 -11.312 -0.016 l -10.648 10.6 V 256 c 0 -4.424 -3.584 -8 -8 -8 s -8 3.576 -8 8 v 12.712 l -10.6 -10.584 c -3.136 -3.12 -8.2 -3.128 -11.32 0.016 c -3.12 3.128 -3.112 8.184 0.008 11.312 l 21.912 21.864 v 25.368 l -42.248 -42.248 c -3.128 -3.128 -8.184 -3.128 -11.312 0 s -3.128 8.184 0 11.312 L 372.939 328 h -26.08 l -20.568 -21.52 c -3.056 -3.208 -8.12 -3.312 -11.312 -0.256 c -3.192 3.048 -3.312 8.12 -0.256 11.304 L 324.731 328 h -12.48 c -4.416 0 -8 3.576 -8 8 s 3.584 8 8 8 h 12.456 l -11.032 10.992 c -3.136 3.128 -3.144 8.184 -0.024 11.32 c 1.56 1.568 3.616 2.352 5.664 2.352 c 2.04 0 4.088 -0.776 5.648 -2.328 L 347.387 344 h 25.552 l -42.248 42.248 c -3.128 3.128 -3.128 8.184 0 11.312 c 1.56 1.56 3.608 2.344 5.656 2.344 s 4.096 -0.784 5.656 -2.344 l 42.248 -42.248 v 25.16 l -21.904 21.856 c -3.128 3.128 -3.136 8.184 -0.008 11.312 c 3.12 3.144 8.184 3.128 11.32 0.016 l 10.592 -10.576 V 416 c 0 4.424 3.584 8 8 8 s 8 -3.576 8 -8 v -12.944 l 10.648 10.608 c 1.56 1.56 3.6 2.336 5.648 2.336 s 4.104 -0.784 5.664 -2.352 c 3.12 -3.136 3.112 -8.192 -0.024 -11.312 l -21.936 -21.856 v -25.168 l 42.248 42.248 c 1.56 1.56 3.608 2.344 5.656 2.344 s 4.096 -0.784 5.656 -2.344 c 3.128 -3.128 3.128 -8.184 0 -11.312 L 411.563 344 h 25.488 l 20.88 22.152 c 1.576 1.672 3.696 2.512 5.824 2.512 c 1.968 0 3.944 -0.72 5.488 -2.176 c 3.216 -3.032 3.36 -8.096 0.336 -11.304 L 459.035 344 h 13.216 c 4.416 0 8 -3.576 8 -8 S 476.667 328 472.251 328 z" stroke-linecap="round"/>
</g>
		<g transform="matrix(1 0 0 1 151.979 94.904)" id="Layer_1">
<circle style="stroke: none; stroke-width: 1; stroke-dasharray: none; stroke-linecap: butt; stroke-dashoffset: 0; stroke-linejoin: miter; stroke-miterlimit: 4; is-custom-font: none; font-file-url: none; fill: rgb(228,241,244); fill-rule: nonzero; opacity: 1;" cx="0" cy="0" r="29.824"/>
</g>
		<g transform="matrix(1 0 0 1 152.007 94.904)" id="Layer_1">
<path style="stroke: none; stroke-width: 1; stroke-dasharray: none; stroke-linecap: butt; stroke-dashoffset: 0; stroke-linejoin: miter; stroke-miterlimit: 4; is-custom-font: none; font-file-url: none; fill: rgb(77,77,77); fill-rule: nonzero; opacity: 1;" transform=" translate(-392.679, -335.576)" d="M 392.675 373.408 c -20.856 0 -37.824 -16.968 -37.824 -37.832 s 16.968 -37.832 37.824 -37.832 c 20.856 0 37.832 16.968 37.832 37.832 S 413.531 373.408 392.675 373.408 z M 392.675 313.752 c -12.032 0 -21.824 9.792 -21.824 21.832 s 9.792 21.832 21.824 21.832 s 21.832 -9.792 21.832 -21.832 S 404.707 313.752 392.675 313.752 z" stroke-linecap="round"/>
</g>
</g>
</g>
<g transform="matrix(0.3677 0 0 0.3677 490.9104 640.2751)" id="827713">
<g style="" vector-effect="non-scaling-stroke">
		<g transform="matrix(1 0 0 1 -124.6684 -0.0109)" id="Layer_1">
<path style="stroke: none; stroke-width: 1; stroke-dasharray: none; stroke-linecap: butt; stroke-dashoffset: 0; stroke-linejoin: miter; stroke-miterlimit: 4; is-custom-font: none; font-file-url: none; fill: rgb(252,182,65); fill-rule: nonzero; opacity: 1;" transform=" translate(-116.0035, -240.6611)" d="M 161.587 272.624 V 56 c 0 -26.512 -21.488 -48 -48 -48 l 0 0 c -26.512 0 -48 21.488 -48 48 v 218.96 c -36.064 19.64 -59.416 59.688 -54.52 104.632 c 5.272 48.432 44.488 87.72 92.912 93.064 c 63.696 7.04 117.608 -42.648 117.608 -104.92 C 221.587 325.784 197.043 289.648 161.587 272.624 z" stroke-linecap="round"/>
</g>
		<g transform="matrix(1 0 0 1 -124.6641 0)" id="Layer_1">
<path style="stroke: none; stroke-width: 1; stroke-dasharray: none; stroke-linecap: butt; stroke-dashoffset: 0; stroke-linejoin: miter; stroke-miterlimit: 4; is-custom-font: none; font-file-url: none; fill: rgb(77,77,77); fill-rule: nonzero; opacity: 1;" transform=" translate(-116.0079, -240.672)" d="M 116.195 481.344 c -4.336 0 -8.704 -0.24 -13.096 -0.728 c -52.24 -5.768 -94.296 -47.88 -99.984 -100.152 c -4.864 -44.616 16.424 -87.312 54.472 -110.144 V 56 c 0 -30.872 25.12 -56 56 -56 s 56 25.128 56 56 v 211.72 c 36.616 19.664 60 58.384 60 100.032 c 0 32.256 -13.792 63.104 -37.832 84.632 C 170.643 471.288 144.203 481.344 116.195 481.344 z M 113.587 16 c -22.056 0 -40 17.944 -40 40 v 218.96 c 0 2.928 -1.6 5.624 -4.176 7.024 c -34.936 19.032 -54.72 57.008 -50.392 96.752 c 4.888 44.864 40.984 81.032 85.84 85.976 c 28.208 3.144 55.288 -5.496 76.224 -24.24 c 20.656 -18.504 32.504 -45.008 32.504 -72.72 c 0 -37.224 -21.768 -71.736 -55.464 -87.912 c -2.768 -1.336 -4.536 -4.136 -4.536 -7.216 V 56 C 153.587 33.944 135.643 16 113.587 16 z" stroke-linecap="round"/>
</g>
		<g transform="matrix(1 0 0 1 -125.3395 75.0381)" id="Layer_1">
<path style="stroke: none; stroke-width: 1; stroke-dasharray: none; stroke-linecap: butt; stroke-dashoffset: 0; stroke-linejoin: miter; stroke-miterlimit: 4; is-custom-font: none; font-file-url: none; fill: rgb(230,96,50); fill-rule: nonzero; opacity: 1;" transform=" translate(-115.3326, -315.7101)" d="M 137.587 302.744 V 216 c 0 -13.256 -10.744 -24 -24 -24 l 0 0 c -13.256 0 -24 10.744 -24 24 v 88.024 c -25.24 9.976 -43.336 34.112 -44.376 62.64 c -1.392 38.312 29.776 71.656 68.104 72.728 c 39.672 1.112 72.184 -30.72 72.184 -70.144 C 185.499 338.288 165.419 312.056 137.587 302.744 z" stroke-linecap="round"/>
</g>
		<g transform="matrix(1 0 0 1 -127.0826 -77.4189)" id="Layer_1">
<path style="stroke: none; stroke-width: 1; stroke-dasharray: none; stroke-linecap: butt; stroke-dashoffset: 0; stroke-linejoin: miter; stroke-miterlimit: 4; is-custom-font: none; font-file-url: none; fill: rgb(230,96,50); fill-rule: nonzero; opacity: 1;" transform=" translate(-113.5894, -163.2531)" d="M 129.595 183.504 c -2.68 0 -5.296 -1.344 -6.808 -3.792 l -8.712 -14.08 l -9.888 14.4 c -2.504 3.648 -7.472 4.576 -11.128 2.064 c -3.64 -2.496 -4.56 -7.488 -2.064 -11.128 l 16.832 -24.496 c 1.528 -2.224 3.984 -3.544 6.784 -3.472 c 2.696 0.072 5.184 1.496 6.608 3.792 l 15.168 24.496 c 2.328 3.76 1.168 8.688 -2.592 11.016 C 132.483 183.12 131.035 183.504 129.595 183.504 z" stroke-linecap="round"/>
</g>
		<g transform="matrix(1 0 0 1 -127.0826 -125.4196)" id="Layer_1">
<path style="stroke: none; stroke-width: 1; stroke-dasharray: none; stroke-linecap: butt; stroke-dashoffset: 0; stroke-linejoin: miter; stroke-miterlimit: 4; is-custom-font: none; font-file-url: none; fill: rgb(230,96,50); fill-rule: nonzero; opacity: 1;" transform=" translate(-113.5894, -115.2524)" d="M 129.595 135.504 c -2.68 0 -5.296 -1.344 -6.808 -3.792 l -8.712 -14.08 l -9.888 14.4 c -2.504 3.648 -7.472 4.576 -11.128 2.064 c -3.64 -2.496 -4.56 -7.488 -2.064 -11.128 l 16.832 -24.496 c 1.528 -2.224 3.984 -3.56 6.784 -3.472 c 2.696 0.072 5.184 1.496 6.608 3.792 l 15.168 24.496 c 2.328 3.76 1.168 8.688 -2.592 11.016 C 132.483 135.12 131.035 135.504 129.595 135.504 z" stroke-linecap="round"/>
</g>
		<g transform="matrix(1 0 0 1 -127.0826 -173.4193)" id="Layer_1">
<path style="stroke: none; stroke-width: 1; stroke-dasharray: none; stroke-linecap: butt; stroke-dashoffset: 0; stroke-linejoin: miter; stroke-miterlimit: 4; is-custom-font: none; font-file-url: none; fill: rgb(230,96,50); fill-rule: nonzero; opacity: 1;" transform=" translate(-113.5894, -67.2527)" d="M 129.595 87.504 c -2.68 0 -5.296 -1.344 -6.808 -3.792 l -8.712 -14.08 l -9.888 14.4 c -2.504 3.648 -7.472 4.568 -11.128 2.064 c -3.64 -2.496 -4.56 -7.488 -2.064 -11.128 l 16.832 -24.496 c 1.528 -2.224 3.984 -3.4 6.784 -3.472 c 2.696 0.072 5.184 1.496 6.608 3.792 l 15.168 24.496 c 2.328 3.76 1.168 8.688 -2.592 11.016 C 132.483 87.12 131.035 87.504 129.595 87.504 z" stroke-linecap="round"/>
</g>
		<g transform="matrix(1 0 0 1 99.155 -69.928)" id="Layer_1">
<ellipse style="stroke: none; stroke-width: 1; stroke-dasharray: none; stroke-linecap: butt; stroke-dashoffset: 0; stroke-linejoin: miter; stroke-miterlimit: 4; is-custom-font: none; font-file-url: none; fill: rgb(252,182,65); fill-rule: nonzero; opacity: 1;" cx="0" cy="0" rx="131.08" ry="133.424"/>
</g>
		<g transform="matrix(1 0 0 1 99.163 -42.012)" id="Layer_1">
<path style="stroke: none; stroke-width: 1; stroke-dasharray: none; stroke-linecap: butt; stroke-dashoffset: 0; stroke-linejoin: miter; stroke-miterlimit: 4; is-custom-font: none; font-file-url: none; fill: rgb(77,77,77); fill-rule: nonzero; opacity: 1;" transform=" translate(-339.835, -198.66)" d="M 478.915 170.752 c 0 -77.984 -62.392 -141.432 -139.08 -141.432 s -139.08 63.448 -139.08 141.432 c 0 53.68 29.568 100.456 73.008 124.408 c -0.04 0.288 -0.176 0.544 -0.176 0.84 v 24 c 0 4.424 3.584 8 8 8 s 8 -3.576 8 -8 v -17.528 c 15.608 6.176 32.512 9.696 50.24 9.696 c 7.416 0 14.648 -0.768 21.76 -1.904 V 360 c 0 4.424 3.584 8 8 8 s 8 -3.576 8 -8 v -53.264 c 24.872 -7.152 46.872 -21.152 64 -39.904 V 304 c 0 4.424 3.584 8 8 8 s 8 -3.576 8 -8 v -56 c 0 -0.624 -0.224 -1.176 -0.352 -1.76 C 470.883 224.368 478.915 198.52 478.915 170.752 z M 339.827 296.168 c -67.864 0 -123.08 -56.264 -123.08 -125.424 c 0 -69.168 55.216 -125.432 123.08 -125.432 s 123.08 56.264 123.08 125.432 C 462.915 239.904 407.699 296.168 339.827 296.168 z" stroke-linecap="round"/>
</g>
		<g transform="matrix(1 0 0 1 208.915 103.328)" id="Layer_1">
<path style="stroke: none; stroke-width: 1; stroke-dasharray: none; stroke-linecap: butt; stroke-dashoffset: 0; stroke-linejoin: miter; stroke-miterlimit: 4; is-custom-font: none; font-file-url: none; fill: rgb(77,77,77); fill-rule: nonzero; opacity: 1;" transform=" translate(-449.587, -344)" d="M 449.587 328 c -4.416 0 -8 3.576 -8 8 v 16 c 0 4.424 3.584 8 8 8 s 8 -3.576 8 -8 v -16 C 457.587 331.576 454.003 328 449.587 328 z" stroke-linecap="round"/>
</g>
		<g transform="matrix(1 0 0 1 128.915 159.328)" id="Layer_1">
<path style="stroke: none; stroke-width: 1; stroke-dasharray: none; stroke-linecap: butt; stroke-dashoffset: 0; stroke-linejoin: miter; stroke-miterlimit: 4; is-custom-font: none; font-file-url: none; fill: rgb(77,77,77); fill-rule: nonzero; opacity: 1;" transform=" translate(-369.587, -400)" d="M 369.587 384 c -4.416 0 -8 3.576 -8 8 v 16 c 0 4.424 3.584 8 8 8 s 8 -3.576 8 -8 v -16 C 377.587 387.576 374.003 384 369.587 384 z" stroke-linecap="round"/>
</g>
		<g transform="matrix(1 0 0 1 40.915 119.328)" id="Layer_1">
<path style="stroke: none; stroke-width: 1; stroke-dasharray: none; stroke-linecap: butt; stroke-dashoffset: 0; stroke-linejoin: miter; stroke-miterlimit: 4; is-custom-font: none; font-file-url: none; fill: rgb(77,77,77); fill-rule: nonzero; opacity: 1;" transform=" translate(-281.587, -360)" d="M 281.587 344 c -4.416 0 -8 3.576 -8 8 v 16 c 0 4.424 3.584 8 8 8 s 8 -3.576 8 -8 v -16 C 289.587 347.576 286.003 344 281.587 344 z" stroke-linecap="round"/>
</g>
</g>
</g>
<g transform="matrix(0.3457 0 0 0.3457 170.0529 378.7071)" id="339159">
<g style="" vector-effect="non-scaling-stroke">
		<g transform="matrix(1 0 0 1 0 0)" id="Layer_1">
<circle style="stroke: none; stroke-width: 1; stroke-dasharray: none; stroke-linecap: butt; stroke-dashoffset: 0; stroke-linejoin: miter; stroke-miterlimit: 4; is-custom-font: none; font-file-url: none; fill: rgb(242,207,97); fill-rule: nonzero; opacity: 1;" cx="0" cy="0" r="256"/>
</g>
		<g transform="matrix(1 0 0 1 -0.52 194)" id="Layer_1">
<path style="stroke: none; stroke-width: 1; stroke-dasharray: none; stroke-linecap: butt; stroke-dashoffset: 0; stroke-linejoin: miter; stroke-miterlimit: 4; is-custom-font: none; font-file-url: none; fill: rgb(102,64,30); fill-rule: nonzero; opacity: 1;" transform=" translate(-255.48, -450)" d="M 252 388 c -75.244 0 -145.084 6.928 -202.844 18.768 C 95.716 470.54 171 512 256 512 c 84.356 0 159.168 -40.82 205.804 -103.764 C 402.736 395.5 330.288 388 252 388 z" stroke-linecap="round"/>
</g>
		<g transform="matrix(1 0 0 1 41.342 -89.82)" id="Layer_1">
<path style="stroke: none; stroke-width: 1; stroke-dasharray: none; stroke-linecap: butt; stroke-dashoffset: 0; stroke-linejoin: miter; stroke-miterlimit: 4; is-custom-font: none; font-file-url: none; fill: rgb(222,119,56); fill-rule: nonzero; opacity: 1;" transform=" translate(-297.342, -166.18)" d="M 192 226.996 c 33.348 3.044 65.284 10.236 91.68 -2.792 c 4.4 7.084 5.072 11.356 6.488 12.988 c 11.004 -5.004 47.836 -25.816 51.576 -31.628 c 4.452 4.508 22.64 20.024 20.092 34.916 c 23.384 -16.552 42.628 -55.752 28.656 -76.904 c 4.14 -0.672 9.824 -0.064 12.192 1.936 c -0.996 -12.236 -8.992 -31.624 -38.076 -47.608 c -10.18 -10.796 -25.384 -25.276 -52.264 -26.024 c 1.976 4.492 1.244 8.488 -0.124 11.688 c -35.296 -9.696 -68.584 9.68 -88.56 18.336 c 13.368 3.404 33.272 12.972 42.004 24.344 c -10.764 2.844 -23.916 11.74 -35.824 25.828 c 6.344 2 10.656 4.672 13.98 7.744 C 224.516 188.504 234.34 215.844 192 226.996 z" stroke-linecap="round"/>
</g>
		<g transform="matrix(1 0 0 1 65.4866 -110.9225)" id="Layer_1">
<path style="stroke: none; stroke-width: 1; stroke-dasharray: none; stroke-linecap: butt; stroke-dashoffset: 0; stroke-linejoin: miter; stroke-miterlimit: 4; is-custom-font: none; font-file-url: none; fill: rgb(125,78,37); fill-rule: nonzero; opacity: 1;" transform=" translate(-321.4865, -145.0775)" d="M 241.264 214.376 c 16.88 -8.252 32.016 -18.384 46.2 -29.092 c 14.144 -10.752 27.232 -22.268 39.392 -34.264 c 14.584 -14.436 21.356 -21.928 33.816 -37.304 c 5.212 -6.404 10.244 -12.888 15.136 -19.416 c 2.448 -3.264 4.864 -6.54 7.292 -9.828 c 2.468 -3.3 4.852 -6.564 7.68 -9.968 c 2.364 -2.848 6.54 -3.324 9.468 -1.072 c 2.924 2.252 3.5 6.416 1.124 9.328 c -0.068 0.084 -0.14 0.172 -0.212 0.252 c -0.016 0.016 -0.02 0.024 -0.036 0.044 c -2.416 2.672 -4.936 5.816 -7.432 8.912 c -2.5 3.112 -5.032 6.276 -7.6 9.44 c -5.14 6.32 -10.444 12.656 -15.96 18.916 c -13.22 15.072 -20.392 22.4 -35.752 36.436 c -12.844 11.688 -26.616 22.872 -41.516 33.252 c -14.928 10.332 -30.82 20.056 -48.632 27.872 c -1.232 0.552 -2.892 0.192 -3.688 -0.784 c -0.768 -0.944 -0.448 -2.128 0.692 -2.696 C 241.248 214.392 241.256 214.384 241.264 214.376 z" stroke-linecap="round"/>
</g>
		<g transform="matrix(1 0 0 1 -98.4554 69.8628)" id="Layer_1">
<path style="stroke: none; stroke-width: 1; stroke-dasharray: none; stroke-linecap: butt; stroke-dashoffset: 0; stroke-linejoin: miter; stroke-miterlimit: 4; is-custom-font: none; font-file-url: none; fill: rgb(189,147,36); fill-rule: nonzero; opacity: 1;" transform=" translate(-157.5446, -325.8628)" d="M 96.32 296.28 c 7.468 13.872 10.82 28.744 26.012 36.88 c -3.656 3.568 -6.44 4.788 -7.232 5.752 c 5.976 3.564 28.824 14.916 33.768 15.212 c -2.176 3.08 -9.744 14.728 -21.368 16.448 c 16.556 7.108 50.228 7.908 62.364 -4.3 c 1.424 1.816 2.224 4.72 1.252 6.364 c 8.824 -3.568 21.864 -12.668 23.488 -32.14 c 4.004 -8.456 7.704 -21.196 -1.964 -34.668 c -1.796 2.6 -4.388 3.66 -6.728 4.124 c -7.1 -20.552 -30.224 -28.572 -41.62 -33.952 c 3.028 7.024 4.932 19.332 1.292 26.996 c -5.128 -3.844 -14.364 -6.56 -26.06 -7.116 c 0.832 3.292 0.604 5.96 -0.2 8.3 C 128.424 298.62 114.844 310.052 96.32 296.28 z" stroke-linecap="round"/>
</g>
		<g transform="matrix(1 0 0 1 -70.2184 74.4091)" id="Layer_1">
<path style="stroke: none; stroke-width: 1; stroke-dasharray: none; stroke-linecap: butt; stroke-dashoffset: 0; stroke-linejoin: miter; stroke-miterlimit: 4; is-custom-font: none; font-file-url: none; fill: rgb(125,78,37); fill-rule: nonzero; opacity: 1;" transform=" translate(-185.7817, -330.4091)" d="M 117.652 312.868 c 9.748 4.82 20.264 8.56 31.004 11.776 c 10.76 3.2 21.828 5.788 33.092 7.856 c 13.544 2.46 20.432 3.412 34.392 4.692 c 5.82 0.548 11.684 0.988 17.6 1.356 c 2.968 0.192 5.932 0.348 8.94 0.524 c 3.024 0.192 6.008 0.364 9.264 0.712 c 2.724 0.292 4.508 2.364 3.948 4.652 s -3.28 3.948 -6.048 3.644 c -0.084 -0.012 -0.156 -0.032 -0.24 -0.044 c -0.016 -0.004 -0.036 0 -0.052 -0.004 c -2.616 -0.404 -5.576 -0.7 -8.468 -1.008 c -2.916 -0.3 -5.864 -0.592 -8.804 -0.912 c -5.888 -0.624 -11.756 -1.316 -17.596 -2.12 c -14.044 -1.916 -20.952 -3.18 -34.488 -6.256 c -11.288 -2.584 -22.34 -5.676 -33.068 -9.384 c -10.708 -3.74 -21.148 -7.964 -30.86 -13.332 c -0.676 -0.372 -0.9 -1.148 -0.504 -1.732 c 0.384 -0.572 1.208 -0.752 1.872 -0.42 C 117.648 312.872 117.648 312.864 117.652 312.868 z" stroke-linecap="round"/>
</g>
		<g transform="matrix(1 0 0 1 -109.3264 -48.7)" id="Layer_1">
<path style="stroke: none; stroke-width: 1; stroke-dasharray: none; stroke-linecap: butt; stroke-dashoffset: 0; stroke-linejoin: miter; stroke-miterlimit: 4; is-custom-font: none; font-file-url: none; fill: rgb(181,48,35); fill-rule: nonzero; opacity: 1;" transform=" translate(-146.6735, -207.3)" d="M 181.2 204.408 c -6.632 5.288 -11.432 11.944 -20.672 12.76 c 1.056 2.536 2.176 3.732 2.364 4.376 c -3.712 0.5 -17.42 1.292 -19.932 0.396 c 0.428 1.984 1.708 9.352 7.1 12.66 c -9.7 0.02 -26.536 -6.708 -29.964 -15.312 c -1.092 0.596 -2.1 1.868 -1.964 2.888 c -3.616 -3.628 -8.148 -10.892 -4.832 -20.876 c -0.196 -5.032 0.664 -12.116 8.3 -16.752 c 0.34 1.668 1.4 2.744 2.456 3.464 c 7.86 -8.672 21 -7.752 27.78 -8.012 c -2.984 2.836 -6.528 8.528 -6.344 13.084 c 3.348 -0.812 8.496 -0.208 14.404 1.992 c -1.108 1.444 -1.556 2.82 -1.656 4.148 C 164.812 198.78 169.12 207.312 181.2 204.408 z" stroke-linecap="round"/>
</g>
		<g transform="matrix(1 0 0 1 -126.004 -54.5963)" id="Layer_1">
<path style="stroke: none; stroke-width: 1; stroke-dasharray: none; stroke-linecap: butt; stroke-dashoffset: 0; stroke-linejoin: miter; stroke-miterlimit: 4; is-custom-font: none; font-file-url: none; fill: rgb(125,78,37); fill-rule: nonzero; opacity: 1;" transform=" translate(-129.996, -201.4038)" d="M 167.136 208.108 c -5.844 0.328 -11.836 -0.056 -17.836 -0.728 c -6.004 -0.692 -12.028 -1.748 -18.044 -3.1 c -7.224 -1.644 -10.836 -2.628 -18.016 -4.944 c -3 -0.952 -5.996 -1.98 -9 -3.056 c -1.512 -0.532 -3.012 -1.084 -4.536 -1.624 c -1.536 -0.548 -3.052 -1.092 -4.74 -1.608 c -1.412 -0.42 -2.728 0.22 -2.936 1.468 c -0.208 1.252 0.788 2.652 2.22 3.084 c 0.044 0.008 0.088 0.016 0.128 0.028 c 0.008 0 0.016 0.008 0.024 0.008 c 1.38 0.356 2.908 0.832 4.408 1.292 c 1.508 0.468 3.028 0.936 4.552 1.412 c 3.048 0.932 6.1 1.832 9.16 2.672 c 7.36 2.02 11.044 2.848 18.4 4.188 c 6.132 1.104 12.256 1.912 18.352 2.344 c 6.088 0.416 12.152 0.528 18.096 -0.08 c 0.412 -0.044 0.684 -0.38 0.612 -0.748 s -0.436 -0.632 -0.836 -0.608 C 167.136 208.108 167.14 208.108 167.136 208.108 z" stroke-linecap="round"/>
</g>
		<g transform="matrix(1 0 0 1 34.4635 170.1497)" id="Layer_1">
<path style="stroke: none; stroke-width: 1; stroke-dasharray: none; stroke-linecap: butt; stroke-dashoffset: 0; stroke-linejoin: miter; stroke-miterlimit: 4; is-custom-font: none; font-file-url: none; fill: rgb(222,119,56); fill-rule: nonzero; opacity: 1;" transform=" translate(-290.4636, -426.1497)" d="M 351.688 396.556 c -7.468 13.876 -10.82 28.752 -26.012 36.892 c 3.652 3.568 6.432 4.772 7.232 5.744 c -5.976 3.564 -28.836 14.916 -33.776 15.204 c 2.172 3.084 9.74 14.744 21.364 16.464 c -16.564 7.108 -50.212 7.904 -62.352 -4.308 c -1.424 1.816 -2.224 4.732 -1.252 6.376 c -8.82 -3.568 -21.872 -12.668 -23.492 -32.14 c -4.004 -8.456 -7.696 -21.212 1.972 -34.676 c 1.796 2.596 4.376 3.66 6.716 4.12 c 7.096 -20.548 30.24 -28.572 41.628 -33.944 c -3.028 7.024 -4.928 19.332 -1.288 26.996 c 5.124 -3.844 14.36 -6.568 26.06 -7.12 c -0.832 3.292 -0.608 5.952 0.192 8.292 C 319.572 398.884 333.164 410.324 351.688 396.556 z" stroke-linecap="round"/>
</g>
		<g transform="matrix(1 0 0 1 6.2229 174.6759)" id="Layer_1">
<path style="stroke: none; stroke-width: 1; stroke-dasharray: none; stroke-linecap: butt; stroke-dashoffset: 0; stroke-linejoin: miter; stroke-miterlimit: 4; is-custom-font: none; font-file-url: none; fill: rgb(125,78,37); fill-rule: nonzero; opacity: 1;" transform=" translate(-262.2228, -430.6759)" d="M 330.344 413.148 c -9.744 4.82 -20.256 8.556 -31 11.776 c -10.756 3.2 -21.828 5.776 -33.092 7.848 c -13.548 2.456 -20.424 3.416 -34.388 4.7 c -5.82 0.548 -11.684 0.976 -17.6 1.344 c -2.968 0.192 -5.94 0.36 -8.944 0.536 c -3.024 0.188 -6.012 0.348 -9.268 0.696 c -2.72 0.296 -4.5 2.364 -3.944 4.652 c 0.56 2.292 3.284 3.944 6.052 3.64 c 0.084 -0.012 0.156 -0.02 0.24 -0.032 c 0.016 -0.004 0.024 0 0.04 -0.004 c 2.616 -0.408 5.58 -0.704 8.472 -1.008 c 2.916 -0.296 5.86 -0.604 8.8 -0.916 c 5.888 -0.62 11.768 -1.312 17.608 -2.112 c 14.044 -1.916 20.944 -3.172 34.484 -6.252 c 11.28 -2.584 22.344 -5.692 33.068 -9.4 c 10.708 -3.744 21.156 -7.964 30.864 -13.328 c 0.68 -0.376 0.904 -1.144 0.508 -1.732 c -0.388 -0.568 -1.208 -0.744 -1.868 -0.416 C 330.36 413.148 330.352 413.144 330.344 413.148 z" stroke-linecap="round"/>
</g>
		<g transform="matrix(1 0 0 1 160.9721 96.922)" id="Layer_1">
<path style="stroke: none; stroke-width: 1; stroke-dasharray: none; stroke-linecap: butt; stroke-dashoffset: 0; stroke-linejoin: miter; stroke-miterlimit: 4; is-custom-font: none; font-file-url: none; fill: rgb(237,184,44); fill-rule: nonzero; opacity: 1;" transform=" translate(-416.9721, -352.922)" d="M 455.844 374.708 c -10.856 0.56 -20.736 4.292 -30.416 -0.208 c -0.916 3.316 -0.776 5.216 -1.108 6.008 c -3.936 -1.644 -17.936 -7.944 -19.808 -10.108 c -0.984 2.368 -4.988 10.86 -2.464 16.988 c -9.116 -4.728 -20.952 -18.436 -19.212 -29.256 c -1.512 0.296 -3.348 1.38 -3.844 2.56 c -1.5 -5.248 -2.156 -14.756 6.868 -25.32 c 2.46 -5.904 6.86 -14.232 18.136 -16.916 c -0.424 2.128 0.26 3.804 1.112 5.084 c 13.648 -7.248 28.904 0.5 37 4.336 c -5.252 1.512 -12.756 6.236 -15.452 11.58 c 4.264 0.856 9.676 4.496 14.5 10.668 c -2.236 0.916 -3.676 2.16 -4.728 3.572 C 443.744 357.188 441.676 368.796 455.844 374.708 z" stroke-linecap="round"/>
</g>
		<g transform="matrix(1 0 0 1 146.0383 89.6284)" id="Layer_1">
<path style="stroke: none; stroke-width: 1; stroke-dasharray: none; stroke-linecap: butt; stroke-dashoffset: 0; stroke-linejoin: miter; stroke-miterlimit: 4; is-custom-font: none; font-file-url: none; fill: rgb(125,78,37); fill-rule: nonzero; opacity: 1;" transform=" translate(-402.0383, -345.6284)" d="M 438.972 368.9 c -6.088 -3.404 -11.936 -7.34 -17.748 -11.284 c -5.796 -3.976 -11.536 -8.068 -17.252 -12.168 l -17.156 -12.376 c -2.868 -2.056 -5.744 -4.1 -8.656 -6.128 c -1.464 -1.012 -2.928 -2.016 -4.428 -3.008 c -1.508 -0.988 -3 -1.96 -4.716 -2.904 c -1.432 -0.776 -3.24 -0.252 -4.024 1.176 c -0.776 1.436 -0.252 3.244 1.176 4.02 c 0.048 0.028 0.084 0.052 0.132 0.076 l 0.024 0.008 c 1.416 0.684 2.92 1.56 4.408 2.424 c 1.484 0.884 2.972 1.788 4.456 2.72 c 2.964 1.852 5.924 3.752 8.88 5.66 l 17.74 11.516 c 5.916 3.832 11.868 7.64 17.884 11.352 c 6.028 3.684 12.084 7.344 18.46 10.504 c 0.44 0.224 0.976 0.04 1.196 -0.404 c 0.216 -0.428 0.052 -0.944 -0.364 -1.18 L 438.972 368.9 z" stroke-linecap="round"/>
</g>
</g>
</g>
<g transform="matrix(1 0 0 1 501.2511 373.2008)" style="filter: url(#SVGID_42);" id="899738">
<filter id="SVGID_42" y="-42.120000000000005%" height="184.24%" x="-21.23%" width="142.46%">
	<feGaussianBlur in="SourceAlpha" stdDeviation="0"/>
	<feOffset dx="5" dy="13" result="oBlur"/>
	<feFlood flood-color="rgb(72,152,156)" flood-opacity="1"/>
	<feComposite in2="oBlur" operator="in"/>
	<feMerge>
		<feMergeNode/>
		<feMergeNode in="SourceGraphic"/>
	</feMerge>
</filter>
		
<path xml:space="preserve" font-family="Modak" font-size="52" style="stroke: rgb(72,152,156); stroke-width: 5; stroke-dasharray: none; stroke-linecap: butt; stroke-dashoffset: 0; stroke-linejoin: miter; stroke-miterlimit: 4; is-custom-font: none; font-file-url: none; fill: rgb(222,201,187); fill-rule: nonzero; opacity: 1; white-space: pre;" d="M-189.55 7.09L-189.55 7.09Q-188.71 6.94-188.71 6.24Q-188.71 5.54-189.16 4.67Q-189.60 3.79-190.47 3.01L-190.47 3.01Q-192.73 0.97-196.59 0.97L-196.59 0.97Q-198.49 0.97-200.14 1.61L-200.14 1.61Q-201.89 0.72-202.93-1.21Q-203.97-3.14-203.97-5.37L-203.97-5.37Q-203.97-11.21-199.10-14.39L-199.10-14.39Q-194.91-17.10-188.77-17.10L-188.77-17.10Q-184.20-17.10-181.07-16.13Q-177.95-15.15-175.97-13.63L-175.97-13.63Q-175.38-11.95-175.38-10.15Q-175.38-8.34-175.87-6.87Q-176.35-5.40-177.26-4.51L-177.26-4.51Q-178.13-5.15-180.39-5.81Q-182.65-6.47-184.50-6.47Q-186.35-6.47-186.98-6.24Q-187.60-6.01-187.60-5.53L-187.60-5.53Q-187.60-5.30-187.52-5.09L-187.52-5.09Q-186.63-5.32-185.24-5.32L-185.24-5.32Q-180.29-5.32-177.16-2.99L-177.16-2.99Q-173.48-0.19-173.48 5.39L-173.48 5.39Q-173.48 10.32-177.47 13.57L-177.47 13.57Q-181.78 17.05-189.07 17.05L-189.07 17.05Q-193.08 17.05-196.03 16.45Q-198.97 15.85-201.77 14.35L-201.77 14.35Q-203.67 11.59-203.67 8.73Q-203.67 5.87-201.71 4.00Q-199.76 2.12-196.90 2.12Q-194.05 2.12-192.23 3.28Q-190.42 4.45-189.55 7.09ZM-157.15 17.12L-157.15 17.12Q-164.19 17.12-168.25 13.21L-168.25 13.21Q-172.41 9.28-172.41 2.43Q-172.41-4.41-168.12-8.42L-168.12-8.42Q-164.16-12.15-158.09-12.15Q-152.03-12.15-148.36-8.81Q-144.69-5.48-144.69-0.60L-144.69-0.60Q-144.69 3.74-147.71 5.95L-147.71 5.95Q-150.50 8.03-155.33 8.03L-155.33 8.03Q-158.93 8.03-161.42 6.53L-161.42 6.53Q-161.62 6.69-161.62 7.09L-161.62 7.09Q-161.62 7.85-159.62 8.49L-159.62 8.49Q-157.61 9.18-155.06 9.18Q-152.51 9.18-150.41 8.53Q-148.32 7.88-147.05 6.99L-147.05 6.99Q-146.44 7.52-146.07 8.96Q-145.70 10.39-145.70 11.57Q-145.70 12.76-145.93 13.67L-145.93 13.67Q-147.91 15.35-149.99 16.06L-149.99 16.06Q-152.94 17.12-157.15 17.12ZM-157.48-0.07L-157.48-0.07Q-156.21-0.07-156.21-1.03L-156.21-1.03Q-156.21-1.95-157.56-1.95Q-158.91-1.95-159.11-0.50L-159.11-0.50Q-158.40-0.07-157.48-0.07ZM-129.53-3.57L-129.53-3.57Q-130.19-3.37-130.19-2.78L-130.19-2.78L-130.19-2.66Q-130.19-2.53-130.16-2.50L-130.16-2.50Q-129.88-2.53-129.43-2.53L-129.43-2.53L-128.82-2.53Q-125.92-2.53-123.40-1.65Q-120.87-0.78-119.27 1.15L-119.27 1.15Q-117.49 3.34-117.49 6.66L-117.49 6.66Q-117.49 11.84-121.07 14.48Q-124.65 17.12-130.65 17.12Q-136.64 17.12-140.03 15.14Q-143.42 13.16-143.42 9.33L-143.42 9.33Q-143.42 7.91-142.81 6.72Q-142.20 5.54-141.44 5.06L-141.44 5.06Q-140.04 6.23-137.39 7.08Q-134.73 7.93-131.76 7.93L-131.76 7.93Q-130.57 7.93-130.57 7.27L-130.57 7.27Q-130.57 6.97-130.65 6.76L-130.65 6.76Q-130.82 6.79-131.08 6.79L-131.08 6.79L-131.36 6.79Q-136.74 6.79-139.96 4.66L-139.96 4.66Q-143.62 2.24-143.62-2.15Q-143.62-6.54-140.35-9.26L-140.35-9.26Q-136.71-12.25-130.37-12.25L-130.37-12.25Q-127.24-12.25-124.54-11.59Q-121.84-10.93-119.91-9.84L-119.91-9.84Q-119.42-8.80-119.42-6.77L-119.42-6.77Q-119.42-3.67-121.12-2.02L-121.12-2.02Q-122.42-2.73-124.29-3.20Q-126.15-3.67-127.65-3.67Q-129.15-3.67-129.53-3.57ZM-102.89 2.19L-102.89 2.19L-102.89 6.64Q-102.72 6.81-102.31 6.81Q-101.90 6.81-101.73 6.53Q-101.55 6.26-101.55 5.57L-101.55 5.57L-101.55 1.94Q-101.55-0.50-101.75-1.30Q-101.95-2.10-102.51-2.10L-102.51-2.10Q-102.87-2.10-103.12-1.84L-103.12-1.84Q-102.89 0.67-102.89 2.19ZM-112.39 13.44L-112.39 13.44Q-116.55 9.43-116.55 2.56Q-116.55-4.31-112.63-8.28Q-108.71-12.25-102.34-12.25Q-95.96-12.25-92.03-8.12L-92.03-8.12Q-88.12-3.98-88.12 2.66Q-88.12 9.30-91.89 13.21Q-95.66 17.12-102.13 17.12Q-108.61 17.12-112.39 13.44ZM-59.53-1.44L-59.60 3.77Q-59.60 5.60-59.20 6.71Q-58.79 7.83-57.78 8.46L-57.78 8.46Q-57.75 8.59-57.75 8.95L-57.75 8.95L-57.75 9.40Q-57.75 12.91-59.77 14.85Q-61.79 16.79-64.97 16.79Q-68.16 16.79-70.14 14.99L-70.14 14.99Q-72.45 12.93-72.45 8.74L-72.45 8.74Q-72.45 6.97-72.29 5.61Q-72.12 4.25-72.06 3.67Q-71.99 3.08-71.92 2.57Q-71.84 2.07-71.84 1.08Q-71.84 0.09-72.11-0.35Q-72.37-0.78-72.84-0.78Q-73.31-0.78-73.67-0.57L-73.67-0.57L-73.34 3.56Q-73.80 6.13-73.80 9.00Q-73.80 11.87-72.50 14.23L-72.50 14.23Q-74.99 16.79-79.48 16.79L-79.48 16.79Q-82.05 16.79-83.93 15.45L-83.93 15.45Q-86.11 13.92-86.11 11.41L-86.11 11.41L-86.11-0.88Q-87.61-2.99-87.61-6.07Q-87.61-9.16-86.11-11.42L-86.11-11.42L-81.59-11.42Q-79.79-11.42-78.52-10.07L-78.52-10.07Q-79.64-9.03-79.64-8.34L-79.64-8.34Q-79.64-7.56-78.75-7.56L-78.75-7.56Q-77.63-9.49-75.33-10.76Q-73.04-12.03-70.12-12.03L-70.12-12.03Q-65.72-12.03-62.98-9.87L-62.98-9.87Q-59.53-7.15-59.53-1.44L-59.53-1.44ZM-31.22-1.21L-31.22 3.77Q-31.22 5.60-30.81 6.71Q-30.40 7.83-29.39 8.46L-29.39 8.46Q-29.36 8.59-29.36 8.95L-29.36 8.95L-29.36 9.40Q-29.36 13.01-31.55 15.01L-31.55 15.01Q-33.48 16.79-36.32 16.79L-36.32 16.79Q-38.25 16.79-39.85 15.88Q-41.45 14.96-42.13 13.24L-42.13 13.24Q-43.00 13.24-43.00 14.08L-43.00 14.08Q-43.00 14.79-42.11 15.68L-42.11 15.68Q-43.76 16.79-47.09 16.79L-47.09 16.79Q-51.78 16.79-54.59 14.24Q-57.39 11.69-57.39 7.11Q-57.39 2.52-54.42 0.01L-54.42 0.01Q-51.71-2.25-47.39-2.25L-47.39-2.25Q-45.92-2.25-44.55-2.05L-44.55-2.05Q-43.63-1.87-43.56-1.84L-43.56-1.84Q-43.48-2.10-43.48-2.28L-43.48-2.28Q-43.48-2.94-44.60-3.16Q-45.71-3.39-47.52-3.39L-47.52-3.39Q-51.35-3.39-54.07-1.84L-54.07-1.84Q-55.31-3.95-55.31-7.18L-55.31-7.18Q-55.31-9.00-54.86-9.89L-54.86-9.89Q-53.03-10.73-50.21-11.38Q-47.39-12.03-44.27-12.03L-44.27-12.03Q-37.82-12.03-34.52-9.21Q-31.22-6.39-31.22-1.21L-31.22-1.21ZM-44.39 5.01L-44.39 5.01Q-45.46 5.01-45.46 5.98L-45.46 5.98Q-45.46 6.89-44.22 6.89L-44.22 6.89Q-43.35 6.89-42.95 6.47Q-42.54 6.05-42.54 5.01L-42.54 5.01Q-42.54 5.01-44.39 5.01ZM-15.40-14.31L-15.40-14.31L-15.40 3.54Q-15.40 7.32-13.57 8.46L-13.57 8.46Q-13.54 8.59-13.54 8.95L-13.54 8.95L-13.54 9.40Q-13.54 13.03-15.39 14.91Q-17.23 16.79-20.60 16.79Q-23.98 16.79-25.96 14.91L-25.96 14.91Q-28.32 12.68-28.32 8.16L-28.32 8.16L-28.32-18.22Q-25.66-19.85-22.22-19.85Q-18.78-19.85-17.09-18.39Q-15.40-16.93-15.40-14.31ZM0.14 16.77L0.14 16.77Q-2.32 16.77-3.97 16.39L-3.97 16.39Q-6.26 15.90-7.32 14.89L-7.32 14.89Q-9.71 9.84-11.41 3.82L-11.41 3.82Q-13.77-4.51-14.71-13.37L-14.71-13.37Q-13.57-15.05-11.59-15.97Q-9.61-16.90-7.17-16.90L-7.17-16.90Q-3.52-16.90-1.42-15.50Q0.67-14.11 0.67-11.52L0.67-11.52Q0.50-9.59 0.36-5.86Q0.22-2.12 0.22 0.90L0.22 0.90Q0.22 1.74 0.38 2.21Q0.55 2.68 1.08 2.68L1.08 2.68Q1.28 2.68 1.59 2.60L1.59 2.60Q1.56 2.37 1.56 1.84L1.56 1.84L1.56 0.95Q1.56-2.73 1.82-7.54Q2.07-12.36 2.43-14.72L2.43-14.72Q4.74-16.14 7.86-16.14Q10.98-16.14 12.89-15.28L12.89-15.28Q15.17-14.21 15.30-12.15L15.30-12.15Q15.17-9.66 14.83-7.25Q14.49-4.84 14.00-1.69Q13.52 1.46 13.39 2.47L13.39 2.47Q13.60 2.57 13.93 2.57Q14.26 2.57 14.54 2.32Q14.82 2.07 14.99 1.10L14.99 1.10Q15.78-2.96 16.29-7.47Q16.80-11.98 16.95-15.33L16.95-15.33Q19.29-16.90 23.40-16.90L23.40-16.90Q26.72-16.90 28.71-15.14Q30.69-13.37 30.69-10.40L30.69-10.40Q30.69-8.42 28.81-0.02L28.81-0.02Q27.84 4.40 26.95 7.54Q26.06 10.67 25.51 11.94L25.51 11.94Q24.34 14.51 22.01 15.64Q19.69 16.77 16.09 16.77L16.09 16.77Q14.64 16.77 12.75 16.34Q10.86 15.90 9.87 15.37L9.87 15.37Q9.36 14.58 8.72 12.98Q8.09 11.38 7.94 10.57L7.94 10.57Q6.95 10.60 6.95 11.64L6.95 11.64Q6.95 12.45 7.73 14.63L7.73 14.63Q5.07 16.77 0.14 16.77ZM43.76 2.19L43.76 2.19L43.76 6.64Q43.94 6.81 44.35 6.81Q44.75 6.81 44.93 6.53Q45.11 6.26 45.11 5.57L45.11 5.57L45.11 1.94Q45.11-0.50 44.90-1.30Q44.70-2.10 44.14-2.10L44.14-2.10Q43.79-2.10 43.53-1.84L43.53-1.84Q43.76 0.67 43.76 2.19ZM34.27 13.44L34.27 13.44Q30.10 9.43 30.10 2.56Q30.10-4.31 34.02-8.28Q37.95-12.25 44.32-12.25Q50.69-12.25 54.63-8.12L54.63-8.12Q58.54-3.98 58.54 2.66Q58.54 9.30 54.77 13.21Q51.00 17.12 44.52 17.12Q38.05 17.12 34.27 13.44ZM67.38 16.67L67.38 16.67Q64.35 16.67 62.55 15.57L62.55 15.57Q60.55 14.43 60.55 12.20L60.55 12.20L60.55-0.88Q59.05-2.99 59.05-6.07Q59.05-9.16 60.55-11.42L60.55-11.42L64.43-11.42Q67.43-11.42 68.72-9.49L68.72-9.49Q68.09-8.78 67.60-7.68Q67.12-6.59 67.12-6.12Q67.12-5.65 67.36-5.42Q67.60-5.20 68.06-5.20L68.06-5.20Q68.95-8.73 71.44-10.38L71.44-10.38Q73.49-11.77 76.52-11.77L76.52-11.77Q80.27-11.77 82.41-10.17L82.41-10.17Q83.17-8.14 83.17-5.21Q83.17-2.28 82.00 0.11L82.00 0.11Q81.14 0.57 79.61 0.89Q78.09 1.20 76.54 1.20Q74.99 1.20 73.76 0.99Q72.53 0.77 71.97 0.59L71.97 0.59Q71.77 0.80 71.77 1.18Q71.77 1.56 72.26 1.75Q72.76 1.94 73.93 2.17L73.93 2.17L73.93 14.91Q71.16 16.67 67.38 16.67ZM97.03 6.79L97.03 6.79L95.81 7.32Q95.81 9.02 96.47 10.95L96.47 10.95Q97.03 12.78 98.02 14.20L98.02 14.20Q95.51 16.79 91.04 16.79L91.04 16.79Q88.47 16.79 86.60 15.45L86.60 15.45Q84.41 13.92 84.41 11.41L84.41 11.41L84.41-18.22Q85.63-18.93 87.34-19.39Q89.06-19.85 90.81-19.85L90.81-19.85Q93.73-19.85 95.63-18.70L95.63-18.70Q97.79-17.36 97.79-14.84L97.79-14.84L97.79-12.15Q97.79-8.78 96.60-5.55L96.60-5.55Q96.37-5.22 95.79-4.60Q95.20-3.98 94.86-3.47Q94.52-2.96 94.52-2.59Q94.52-2.23 95.13-1.92L95.13-1.92Q97.11-3.77 98.24-5.96Q99.37-8.14 100.31-11.75L100.31-11.75Q100.64-11.80 101.07-11.87Q101.50-11.95 102.50-12.11Q103.51-12.28 103.91-12.28L103.91-12.28Q107.82-12.28 110.01-10.49Q112.19-8.70 112.19-5.58Q112.19-2.45 110.21-0.22L110.21-0.22Q108.38 1.79 105.46 2.80L105.46 2.80Q107.80 4.17 111.35 4.76L111.35 4.76Q112.72 7.25 112.72 10.05Q112.72 12.86 110.95 14.74L110.95 14.74Q108.96 16.79 105.47 16.79Q101.98 16.79 99.74 14.11Q97.49 11.43 97.03 6.79ZM128.85-0.35Q129.05-0.14 129.48-0.14Q129.91-0.14 130.22-0.32L130.22-0.32Q129.56-4.18 129.33-4.89L129.33-4.89Q129.05-5.63 128.49-5.63L128.49-5.63Q128.24-5.63 127.88-5.48L127.88-5.48L128.85-0.35ZM123.82 7.27L123.82 7.27Q123.56 7.63 123.56 7.93L123.56 7.93Q123.56 8.67 124.95 9.16Q126.33 9.66 128.31 9.78L128.31 9.78Q128.64 13.44 129.02 13.95L129.02 13.95Q128.54 14.89 126.36 15.84Q124.17 16.79 121.43 16.79L121.43 16.79Q117.80 16.79 115.21 15.23Q112.62 13.67 112.62 11.21L112.62 11.21Q112.62 10.55 112.75 10.04L112.75 10.04L118.16-14.13Q120.19-15.43 123.01-16.16Q125.82-16.90 128.87-16.90L128.87-16.90Q133.24-16.90 136.34-15.43L136.34-15.43Q139.87-13.75 140.63-10.58L140.63-10.58L146.42 13.36Q143.78 16.79 137.81 16.79L137.81 16.79Q134.91 16.79 132.91 15.75Q130.90 14.71 130.57 12.78L130.57 12.78L130.01 9.68Q131.54 9.66 132.96 9.10Q134.38 8.54 134.38 7.93L134.38 7.93Q134.38 7.52 134.05 7.27L134.05 7.27Q133.09 7.96 131.69 8.31Q130.29 8.67 129.10 8.67L129.10 8.67Q125.67 8.67 123.82 7.27ZM160.18 2.62L160.18 2.62L160.18 6.03Q160.36 6.20 160.76 6.20Q161.17 6.20 161.35 5.93Q161.52 5.65 161.52 4.96L161.52 4.96L161.52 2.37Q161.52-0.07 161.32-0.87Q161.12-1.67 160.56-1.67L160.56-1.67Q160.20-1.67 159.95-1.41L159.95-1.41Q160.18 1.10 160.18 2.62ZM152.08-8.32L152.08-8.32Q152.08-7.56 152.97-7.56L152.97-7.56Q154.49-9.94 156.55-11.10Q158.60-12.25 161.50-12.25Q164.39-12.25 166.78-11.34L166.78-11.34Q170.05-10.05 171.96-7.18L171.96-7.18Q174.35-3.55 174.35 2.35L174.35 2.35Q174.35 8.97 170.80 12.64Q167.26 16.31 160.99 16.31L160.99 16.31Q157.49 16.31 155.53 15.45L155.53 15.45Q155.35 15.55 155.35 15.88L155.35 15.88Q155.35 16.64 156.53 16.97Q157.71 17.30 160.61 17.45L160.61 17.45L160.61 24.21Q157.99 25.37 154.87 25.37L154.87 25.37Q151.19 25.37 149.31 24.03L149.31 24.03Q147.18 22.58 147.18 19.59L147.18 19.59L147.18-0.85Q145.68-2.96 145.68-6.08L145.68-6.08Q145.68-7.35 146.09-8.85Q146.49-10.35 147.18-11.42L147.18-11.42L150.78-11.42Q152.99-11.42 154.16-10.81L154.16-10.81Q152.08-9.26 152.08-8.32ZM189.35 2.62L189.35 2.62L189.35 6.03Q189.53 6.20 189.94 6.20Q190.34 6.20 190.52 5.93Q190.70 5.65 190.70 4.96L190.70 4.96L190.70 2.37Q190.70-0.07 190.49-0.87Q190.29-1.67 189.73-1.67L189.73-1.67Q189.38-1.67 189.12-1.41L189.12-1.41Q189.35 1.10 189.35 2.62ZM181.25-8.32L181.25-8.32Q181.25-7.56 182.14-7.56L182.14-7.56Q183.66-9.94 185.72-11.10Q187.78-12.25 190.67-12.25Q193.57-12.25 195.95-11.34L195.95-11.34Q199.23-10.05 201.13-7.18L201.13-7.18Q203.52-3.55 203.52 2.35L203.52 2.35Q203.52 8.97 199.98 12.64Q196.44 16.31 190.16 16.31L190.16 16.31Q186.66 16.31 184.71 15.45L184.71 15.45Q184.53 15.55 184.53 15.88L184.53 15.88Q184.53 16.64 185.71 16.97Q186.89 17.30 189.78 17.45L189.78 17.45L189.78 24.21Q187.17 25.37 184.05 25.37L184.05 25.37Q180.36 25.37 178.48 24.03L178.48 24.03Q176.35 22.58 176.35 19.59L176.35 19.59L176.35-0.85Q174.85-2.96 174.85-6.08L174.85-6.08Q174.85-7.35 175.26-8.85Q175.67-10.35 176.35-11.42L176.35-11.42L179.96-11.42Q182.17-11.42 183.33-10.81L183.33-10.81Q181.25-9.26 181.25-8.32Z"/></g>
</svg>